<?xml version="1.0" encoding="UTF-8" standalone="no"?>
<!DOCTYPE svg PUBLIC "-//W3C//DTD SVG 1.1//EN"
 "http://www.w3.org/Graphics/SVG/1.1/DTD/svg11.dtd">
<!-- Generated by graphviz version 2.38.0 (20140413.2041)
 -->
<!-- Title: BasicTracker.Program.Main Pages: 1 -->
<svg width="717pt" height="144pt"
 viewBox="0.00 0.00 717.00 143.56" xmlns="http://www.w3.org/2000/svg" xmlns:xlink="http://www.w3.org/1999/xlink">
<g id="graph0" class="graph" transform="scale(1 1) rotate(0) translate(4 139.562)">
<title>BasicTracker.Program.Main</title>
<polygon fill="white" stroke="none" points="-4,4 -4,-139.562 713,-139.562 713,4 -4,4"/>
<!-- Node1 -->
<g id="node1" class="node"><title>Node1</title>
<g id="a_node1"><a xlink:title="The main function.">
<polygon fill="#bfbfbf" stroke="black" points="0,-60.5 0,-79.5 137,-79.5 137,-60.5 0,-60.5"/>
<text text-anchor="middle" x="68.5" y="-67.5" font-family="Helvetica,sans-Serif" font-size="10.00">BasicTracker.Program.Main</text>
</a>
</g>
</g>
<!-- Node2 -->
<g id="node2" class="node"><title>Node2</title>
<g id="a_node2"><a xlink:href="class_basic_tracker_1_1_consolex.html#a44f4ae0b9fee79d2139607c7802d316f" target="_top" xlink:title="returns the last key from the user">
<polygon fill="white" stroke="black" points="556,-104.5 556,-123.5 709,-123.5 709,-104.5 556,-104.5"/>
<text text-anchor="middle" x="632.5" y="-111.5" font-family="Helvetica,sans-Serif" font-size="10.00">BasicTracker.Consolex.GetKey</text>
</a>
</g>
</g>
<!-- Node1&#45;&gt;Node2 -->
<g id="edge1" class="edge"><title>Node1&#45;&gt;Node2</title>
<path fill="none" stroke="midnightblue" d="M84.9018,-79.541C104.507,-91.0717 139.824,-109.82 173,-117 304.42,-145.442 462.032,-135.044 554.053,-124.678"/>
<polygon fill="midnightblue" stroke="midnightblue" points="554.588,-128.14 564.12,-123.515 553.785,-121.186 554.588,-128.14"/>
</g>
<!-- Node3 -->
<g id="node3" class="node"><title>Node3</title>
<g id="a_node3"><a xlink:href="class_basic_tracker_1_1_consolex.html#a2c8b2a721cb4a6f4eb7506e5a7c90b7c" target="_top" xlink:title="Handles the cursor movement.">
<polygon fill="white" stroke="black" points="186.5,-77 186.5,-107 335.5,-107 335.5,-77 186.5,-77"/>
<text text-anchor="start" x="194.5" y="-95" font-family="Helvetica,sans-Serif" font-size="10.00">BasicTracker.Consolex.handle</text>
<text text-anchor="middle" x="261" y="-84" font-family="Helvetica,sans-Serif" font-size="10.00">Movement</text>
</a>
</g>
</g>
<!-- Node1&#45;&gt;Node3 -->
<g id="edge2" class="edge"><title>Node1&#45;&gt;Node3</title>
<path fill="none" stroke="midnightblue" d="M137.2,-77.8183C149.897,-79.2847 163.31,-80.8337 176.423,-82.3481"/>
<polygon fill="midnightblue" stroke="midnightblue" points="176.04,-85.827 186.375,-83.4974 176.843,-78.8732 176.04,-85.827"/>
</g>
<!-- Node5 -->
<g id="node5" class="node"><title>Node5</title>
<g id="a_node5"><a xlink:href="class_basic_tracker_1_1_consolex.html#a288ed5923467e92e55c1832d7fd09c18" target="_top" xlink:title="Gets a key from the user and set lastkey to it.">
<polygon fill="white" stroke="black" points="173,-38.5 173,-57.5 349,-57.5 349,-38.5 173,-38.5"/>
<text text-anchor="middle" x="261" y="-45.5" font-family="Helvetica,sans-Serif" font-size="10.00">BasicTracker.Consolex.RefreshKeys</text>
</a>
</g>
</g>
<!-- Node1&#45;&gt;Node5 -->
<g id="edge5" class="edge"><title>Node1&#45;&gt;Node5</title>
<path fill="none" stroke="midnightblue" d="M137.2,-62.1817C146.985,-61.0516 157.195,-59.8725 167.365,-58.698"/>
<polygon fill="midnightblue" stroke="midnightblue" points="167.972,-62.1513 177.504,-57.5271 167.169,-55.1975 167.972,-62.1513"/>
</g>
<!-- Node6 -->
<g id="node6" class="node"><title>Node6</title>
<g id="a_node6"><a xlink:href="class_basic_tracker_1_1_audio_subsystem.html#ac2b08ec24e6665109de41bb25b5c0bd6" target="_top" xlink:title=" ">
<polygon fill="white" stroke="black" points="175,-0.5 175,-19.5 347,-19.5 347,-0.5 175,-0.5"/>
<text text-anchor="middle" x="261" y="-7.5" font-family="Helvetica,sans-Serif" font-size="10.00">BasicTracker.AudioSubsystem.Tick</text>
</a>
</g>
</g>
<!-- Node1&#45;&gt;Node6 -->
<g id="edge6" class="edge"><title>Node1&#45;&gt;Node6</title>
<path fill="none" stroke="midnightblue" d="M90.5488,-60.4923C111.212,-51.4397 143.792,-37.9103 173,-29 181.488,-26.4107 190.543,-24.0274 199.485,-21.8878"/>
<polygon fill="midnightblue" stroke="midnightblue" points="200.538,-25.2367 209.495,-19.5778 198.964,-18.416 200.538,-25.2367"/>
</g>
<!-- Node4 -->
<g id="node4" class="node"><title>Node4</title>
<g id="a_node4"><a xlink:href="class_basic_tracker_1_1_main_window.html#a7d1d257f8d33a8c221776cff36eea9a3" target="_top" xlink:title=" ">
<polygon fill="white" stroke="black" points="385,-77 385,-107 520,-107 520,-77 385,-77"/>
<text text-anchor="start" x="393" y="-95" font-family="Helvetica,sans-Serif" font-size="10.00">BasicTracker.MainWindow.</text>
<text text-anchor="middle" x="452.5" y="-84" font-family="Helvetica,sans-Serif" font-size="10.00">HandleMovement</text>
</a>
</g>
</g>
<!-- Node3&#45;&gt;Node4 -->
<g id="edge3" class="edge"><title>Node3&#45;&gt;Node4</title>
<path fill="none" stroke="midnightblue" d="M335.537,-92C348.343,-92 361.695,-92 374.589,-92"/>
<polygon fill="midnightblue" stroke="midnightblue" points="374.812,-95.5001 384.812,-92 374.812,-88.5001 374.812,-95.5001"/>
</g>
<!-- Node4&#45;&gt;Node2 -->
<g id="edge4" class="edge"><title>Node4&#45;&gt;Node2</title>
<path fill="none" stroke="midnightblue" d="M520.034,-100.223C528.409,-101.258 537.068,-102.329 545.687,-103.394"/>
<polygon fill="midnightblue" stroke="midnightblue" points="545.413,-106.887 555.767,-104.64 546.272,-99.9395 545.413,-106.887"/>
</g>
</g>
</svg>
