<?xml version="1.0" encoding="UTF-8" standalone="no"?>
<!DOCTYPE svg PUBLIC "-//W3C//DTD SVG 1.1//EN"
 "http://www.w3.org/Graphics/SVG/1.1/DTD/svg11.dtd">
<!-- Generated by graphviz version 2.38.0 (20140413.2041)
 -->
<!-- Title: BasicTracker.Channel Pages: 1 -->
<svg width="324pt" height="320pt"
 viewBox="0.00 0.00 323.50 320.00" xmlns="http://www.w3.org/2000/svg" xmlns:xlink="http://www.w3.org/1999/xlink">
<g id="graph0" class="graph" transform="scale(1 1) rotate(0) translate(4 316)">
<title>BasicTracker.Channel</title>
<polygon fill="white" stroke="none" points="-4,4 -4,-316 319.5,-316 319.5,4 -4,4"/>
<!-- Node1 -->
<g id="node1" class="node"><title>Node1</title>
<g id="a_node1"><a xlink:title=" ">
<polygon fill="#bfbfbf" stroke="black" points="99.5,-0.5 99.5,-57.5 211.5,-57.5 211.5,-0.5 99.5,-0.5"/>
<text text-anchor="middle" x="155.5" y="-45.5" font-family="Helvetica,sans-Serif" font-size="10.00">BasicTracker.Channel</text>
<polyline fill="none" stroke="black" points="99.5,-38.5 211.5,-38.5 "/>
<text text-anchor="middle" x="155.5" y="-26.5" font-family="Helvetica,sans-Serif" font-size="10.00"> </text>
<polyline fill="none" stroke="black" points="99.5,-19.5 211.5,-19.5 "/>
<text text-anchor="middle" x="155.5" y="-7.5" font-family="Helvetica,sans-Serif" font-size="10.00"> </text>
</a>
</g>
</g>
<!-- Node2 -->
<g id="node2" class="node"><title>Node2</title>
<g id="a_node2"><a xlink:href="class_basic_tracker_1_1_note.html" target="_top" xlink:title=" ">
<polygon fill="white" stroke="black" points="107,-105.5 107,-195.5 204,-195.5 204,-105.5 107,-105.5"/>
<text text-anchor="middle" x="155.5" y="-183.5" font-family="Helvetica,sans-Serif" font-size="10.00">BasicTracker.Note</text>
<polyline fill="none" stroke="black" points="107,-176.5 204,-176.5 "/>
<text text-anchor="start" x="115" y="-164.5" font-family="Helvetica,sans-Serif" font-size="10.00">+ instrument</text>
<text text-anchor="start" x="115" y="-153.5" font-family="Helvetica,sans-Serif" font-size="10.00">+ note</text>
<text text-anchor="start" x="115" y="-142.5" font-family="Helvetica,sans-Serif" font-size="10.00">+ octave</text>
<text text-anchor="start" x="115" y="-131.5" font-family="Helvetica,sans-Serif" font-size="10.00">+ internal_note</text>
<polyline fill="none" stroke="black" points="107,-124.5 204,-124.5 "/>
<text text-anchor="start" x="115" y="-112.5" font-family="Helvetica,sans-Serif" font-size="10.00">+ decodeVolume()</text>
</a>
</g>
</g>
<!-- Node2&#45;&gt;Node1 -->
<g id="edge1" class="edge"><title>Node2&#45;&gt;Node1</title>
<path fill="none" stroke="#404040" d="M155.5,-105.342C155.5,-93.7485 155.5,-81.3129 155.5,-69.9534"/>
<polygon fill="none" stroke="#404040" points="155.5,-69.6879 151.5,-63.6879 155.5,-57.6879 159.5,-63.6878 155.5,-69.6879"/>
<text text-anchor="middle" x="172.5" y="-79" font-family="Helvetica,sans-Serif" font-size="10.00"> +notes</text>
</g>
<!-- Node3 -->
<g id="node3" class="node"><title>Node3</title>
<g id="a_node3"><a xlink:href="struct_basic_tracker_1_1effect_parameter.html" target="_top" xlink:title=" ">
<polygon fill="white" stroke="black" points="0,-243.5 0,-311.5 145,-311.5 145,-243.5 0,-243.5"/>
<text text-anchor="middle" x="72.5" y="-299.5" font-family="Helvetica,sans-Serif" font-size="10.00">BasicTracker.effectParameter</text>
<polyline fill="none" stroke="black" points="0,-292.5 145,-292.5 "/>
<text text-anchor="start" x="8" y="-280.5" font-family="Helvetica,sans-Serif" font-size="10.00">+ type</text>
<text text-anchor="start" x="8" y="-269.5" font-family="Helvetica,sans-Serif" font-size="10.00">+ value</text>
<polyline fill="none" stroke="black" points="0,-262.5 145,-262.5 "/>
<text text-anchor="middle" x="72.5" y="-250.5" font-family="Helvetica,sans-Serif" font-size="10.00"> </text>
</a>
</g>
</g>
<!-- Node3&#45;&gt;Node2 -->
<g id="edge2" class="edge"><title>Node3&#45;&gt;Node2</title>
<path fill="none" stroke="#404040" d="M94.5246,-243.33C102.179,-231.802 110.978,-218.552 119.465,-205.769"/>
<polygon fill="none" stroke="#404040" points="119.54,-205.657 119.527,-198.445 126.178,-195.66 126.191,-202.871 119.54,-205.657"/>
<text text-anchor="middle" x="131" y="-217" font-family="Helvetica,sans-Serif" font-size="10.00"> +effect</text>
</g>
<!-- Node4 -->
<g id="node4" class="node"><title>Node4</title>
<g id="a_node4"><a xlink:href="struct_basic_tracker_1_1volume_parameter.html" target="_top" xlink:title=" ">
<polygon fill="white" stroke="black" points="163.5,-243.5 163.5,-311.5 315.5,-311.5 315.5,-243.5 163.5,-243.5"/>
<text text-anchor="middle" x="239.5" y="-299.5" font-family="Helvetica,sans-Serif" font-size="10.00">BasicTracker.volumeParameter</text>
<polyline fill="none" stroke="black" points="163.5,-292.5 315.5,-292.5 "/>
<text text-anchor="start" x="171.5" y="-280.5" font-family="Helvetica,sans-Serif" font-size="10.00">+ type</text>
<text text-anchor="start" x="171.5" y="-269.5" font-family="Helvetica,sans-Serif" font-size="10.00">+ value</text>
<polyline fill="none" stroke="black" points="163.5,-262.5 315.5,-262.5 "/>
<text text-anchor="middle" x="239.5" y="-250.5" font-family="Helvetica,sans-Serif" font-size="10.00"> </text>
</a>
</g>
</g>
<!-- Node4&#45;&gt;Node2 -->
<g id="edge3" class="edge"><title>Node4&#45;&gt;Node2</title>
<path fill="none" stroke="#404040" d="M217.21,-243.33C209.463,-231.802 200.559,-218.552 191.969,-205.769"/>
<polygon fill="none" stroke="#404040" points="191.868,-205.62 185.202,-202.871 185.175,-195.66 191.842,-198.409 191.868,-205.62"/>
<text text-anchor="middle" x="223.5" y="-217" font-family="Helvetica,sans-Serif" font-size="10.00"> +volume</text>
</g>
</g>
</svg>
