<?xml version="1.0" encoding="UTF-8" standalone="no"?>
<!DOCTYPE svg PUBLIC "-//W3C//DTD SVG 1.1//EN"
 "http://www.w3.org/Graphics/SVG/1.1/DTD/svg11.dtd">
<!-- Generated by graphviz version 2.38.0 (20140413.2041)
 -->
<!-- Title: BasicTracker.Pattern Pages: 1 -->
<svg width="324pt" height="425pt"
 viewBox="0.00 0.00 323.50 425.00" xmlns="http://www.w3.org/2000/svg" xmlns:xlink="http://www.w3.org/1999/xlink">
<g id="graph0" class="graph" transform="scale(1 1) rotate(0) translate(4 421)">
<title>BasicTracker.Pattern</title>
<polygon fill="white" stroke="none" points="-4,4 -4,-421 319.5,-421 319.5,4 -4,4"/>
<!-- Node1 -->
<g id="node1" class="node"><title>Node1</title>
<g id="a_node1"><a xlink:title=" ">
<polygon fill="#bfbfbf" stroke="black" points="101.5,-0.5 101.5,-57.5 209.5,-57.5 209.5,-0.5 101.5,-0.5"/>
<text text-anchor="middle" x="155.5" y="-45.5" font-family="Helvetica,sans-Serif" font-size="10.00">BasicTracker.Pattern</text>
<polyline fill="none" stroke="black" points="101.5,-38.5 209.5,-38.5 "/>
<text text-anchor="middle" x="155.5" y="-26.5" font-family="Helvetica,sans-Serif" font-size="10.00"> </text>
<polyline fill="none" stroke="black" points="101.5,-19.5 209.5,-19.5 "/>
<text text-anchor="start" x="109.5" y="-7.5" font-family="Helvetica,sans-Serif" font-size="10.00">+ Pattern()</text>
</a>
</g>
</g>
<!-- Node2 -->
<g id="node2" class="node"><title>Node2</title>
<g id="a_node2"><a xlink:href="class_basic_tracker_1_1_channel.html" target="_top" xlink:title=" ">
<polygon fill="white" stroke="black" points="99.5,-105.5 99.5,-162.5 211.5,-162.5 211.5,-105.5 99.5,-105.5"/>
<text text-anchor="middle" x="155.5" y="-150.5" font-family="Helvetica,sans-Serif" font-size="10.00">BasicTracker.Channel</text>
<polyline fill="none" stroke="black" points="99.5,-143.5 211.5,-143.5 "/>
<text text-anchor="middle" x="155.5" y="-131.5" font-family="Helvetica,sans-Serif" font-size="10.00"> </text>
<polyline fill="none" stroke="black" points="99.5,-124.5 211.5,-124.5 "/>
<text text-anchor="middle" x="155.5" y="-112.5" font-family="Helvetica,sans-Serif" font-size="10.00"> </text>
</a>
</g>
</g>
<!-- Node2&#45;&gt;Node1 -->
<g id="edge1" class="edge"><title>Node2&#45;&gt;Node1</title>
<path fill="none" stroke="#404040" d="M155.5,-105.398C155.5,-94.5451 155.5,-81.8731 155.5,-70.0493"/>
<polygon fill="none" stroke="#404040" points="155.5,-69.6783 151.5,-63.6783 155.5,-57.6783 159.5,-63.6783 155.5,-69.6783"/>
<text text-anchor="middle" x="180" y="-79" font-family="Helvetica,sans-Serif" font-size="10.00"> +channels</text>
</g>
<!-- Node3 -->
<g id="node3" class="node"><title>Node3</title>
<g id="a_node3"><a xlink:href="class_basic_tracker_1_1_note.html" target="_top" xlink:title=" ">
<polygon fill="white" stroke="black" points="107,-210.5 107,-300.5 204,-300.5 204,-210.5 107,-210.5"/>
<text text-anchor="middle" x="155.5" y="-288.5" font-family="Helvetica,sans-Serif" font-size="10.00">BasicTracker.Note</text>
<polyline fill="none" stroke="black" points="107,-281.5 204,-281.5 "/>
<text text-anchor="start" x="115" y="-269.5" font-family="Helvetica,sans-Serif" font-size="10.00">+ instrument</text>
<text text-anchor="start" x="115" y="-258.5" font-family="Helvetica,sans-Serif" font-size="10.00">+ note</text>
<text text-anchor="start" x="115" y="-247.5" font-family="Helvetica,sans-Serif" font-size="10.00">+ octave</text>
<text text-anchor="start" x="115" y="-236.5" font-family="Helvetica,sans-Serif" font-size="10.00">+ internal_note</text>
<polyline fill="none" stroke="black" points="107,-229.5 204,-229.5 "/>
<text text-anchor="start" x="115" y="-217.5" font-family="Helvetica,sans-Serif" font-size="10.00">+ decodeVolume()</text>
</a>
</g>
</g>
<!-- Node3&#45;&gt;Node2 -->
<g id="edge2" class="edge"><title>Node3&#45;&gt;Node2</title>
<path fill="none" stroke="#404040" d="M155.5,-210.342C155.5,-198.749 155.5,-186.313 155.5,-174.953"/>
<polygon fill="none" stroke="#404040" points="155.5,-174.688 151.5,-168.688 155.5,-162.688 159.5,-168.688 155.5,-174.688"/>
<text text-anchor="middle" x="172.5" y="-184" font-family="Helvetica,sans-Serif" font-size="10.00"> +notes</text>
</g>
<!-- Node4 -->
<g id="node4" class="node"><title>Node4</title>
<g id="a_node4"><a xlink:href="struct_basic_tracker_1_1effect_parameter.html" target="_top" xlink:title=" ">
<polygon fill="white" stroke="black" points="0,-348.5 0,-416.5 145,-416.5 145,-348.5 0,-348.5"/>
<text text-anchor="middle" x="72.5" y="-404.5" font-family="Helvetica,sans-Serif" font-size="10.00">BasicTracker.effectParameter</text>
<polyline fill="none" stroke="black" points="0,-397.5 145,-397.5 "/>
<text text-anchor="start" x="8" y="-385.5" font-family="Helvetica,sans-Serif" font-size="10.00">+ type</text>
<text text-anchor="start" x="8" y="-374.5" font-family="Helvetica,sans-Serif" font-size="10.00">+ value</text>
<polyline fill="none" stroke="black" points="0,-367.5 145,-367.5 "/>
<text text-anchor="middle" x="72.5" y="-355.5" font-family="Helvetica,sans-Serif" font-size="10.00"> </text>
</a>
</g>
</g>
<!-- Node4&#45;&gt;Node3 -->
<g id="edge3" class="edge"><title>Node4&#45;&gt;Node3</title>
<path fill="none" stroke="#404040" d="M94.5246,-348.33C102.179,-336.802 110.978,-323.552 119.465,-310.769"/>
<polygon fill="none" stroke="#404040" points="119.54,-310.657 119.527,-303.445 126.178,-300.66 126.191,-307.871 119.54,-310.657"/>
<text text-anchor="middle" x="131" y="-322" font-family="Helvetica,sans-Serif" font-size="10.00"> +effect</text>
</g>
<!-- Node5 -->
<g id="node5" class="node"><title>Node5</title>
<g id="a_node5"><a xlink:href="struct_basic_tracker_1_1volume_parameter.html" target="_top" xlink:title=" ">
<polygon fill="white" stroke="black" points="163.5,-348.5 163.5,-416.5 315.5,-416.5 315.5,-348.5 163.5,-348.5"/>
<text text-anchor="middle" x="239.5" y="-404.5" font-family="Helvetica,sans-Serif" font-size="10.00">BasicTracker.volumeParameter</text>
<polyline fill="none" stroke="black" points="163.5,-397.5 315.5,-397.5 "/>
<text text-anchor="start" x="171.5" y="-385.5" font-family="Helvetica,sans-Serif" font-size="10.00">+ type</text>
<text text-anchor="start" x="171.5" y="-374.5" font-family="Helvetica,sans-Serif" font-size="10.00">+ value</text>
<polyline fill="none" stroke="black" points="163.5,-367.5 315.5,-367.5 "/>
<text text-anchor="middle" x="239.5" y="-355.5" font-family="Helvetica,sans-Serif" font-size="10.00"> </text>
</a>
</g>
</g>
<!-- Node5&#45;&gt;Node3 -->
<g id="edge4" class="edge"><title>Node5&#45;&gt;Node3</title>
<path fill="none" stroke="#404040" d="M217.21,-348.33C209.463,-336.802 200.559,-323.552 191.969,-310.769"/>
<polygon fill="none" stroke="#404040" points="191.868,-310.62 185.202,-307.871 185.175,-300.66 191.842,-303.409 191.868,-310.62"/>
<text text-anchor="middle" x="223.5" y="-322" font-family="Helvetica,sans-Serif" font-size="10.00"> +volume</text>
</g>
</g>
</svg>
