<?xml version="1.0" encoding="UTF-8" standalone="no"?>
<!DOCTYPE svg PUBLIC "-//W3C//DTD SVG 1.1//EN"
 "http://www.w3.org/Graphics/SVG/1.1/DTD/svg11.dtd">
<!-- Generated by graphviz version 2.38.0 (20140413.2041)
 -->
<!-- Title: BasicTracker.AudioSubsystem.TrackerStream Pages: 1 -->
<svg width="162pt" height="226pt"
 viewBox="0.00 0.00 162.00 226.00" xmlns="http://www.w3.org/2000/svg" xmlns:xlink="http://www.w3.org/1999/xlink">
<g id="graph0" class="graph" transform="scale(1 1) rotate(0) translate(4 222)">
<title>BasicTracker.AudioSubsystem.TrackerStream</title>
<polygon fill="white" stroke="none" points="-4,4 -4,-222 158,-222 158,4 -4,4"/>
<!-- Node1 -->
<g id="node1" class="node"><title>Node1</title>
<g id="a_node1"><a xlink:title=" ">
<polygon fill="#bfbfbf" stroke="black" points="0,-0.5 0,-123.5 154,-123.5 154,-0.5 0,-0.5"/>
<text text-anchor="start" x="8" y="-111.5" font-family="Helvetica,sans-Serif" font-size="10.00">BasicTracker.AudioSubsystem.</text>
<text text-anchor="middle" x="77" y="-100.5" font-family="Helvetica,sans-Serif" font-size="10.00">TrackerStream</text>
<polyline fill="none" stroke="black" points="0,-93.5 154,-93.5 "/>
<text text-anchor="start" x="8" y="-81.5" font-family="Helvetica,sans-Serif" font-size="10.00">+ Position</text>
<text text-anchor="start" x="8" y="-70.5" font-family="Helvetica,sans-Serif" font-size="10.00">+ WaveFormat</text>
<text text-anchor="start" x="8" y="-59.5" font-family="Helvetica,sans-Serif" font-size="10.00">+ Length</text>
<text text-anchor="start" x="8" y="-48.5" font-family="Helvetica,sans-Serif" font-size="10.00">&#45; format</text>
<text text-anchor="start" x="8" y="-37.5" font-family="Helvetica,sans-Serif" font-size="10.00">&#45; position</text>
<polyline fill="none" stroke="black" points="0,-30.5 154,-30.5 "/>
<text text-anchor="start" x="8" y="-18.5" font-family="Helvetica,sans-Serif" font-size="10.00">+ TrackerStream()</text>
<text text-anchor="start" x="8" y="-7.5" font-family="Helvetica,sans-Serif" font-size="10.00">+ Read()</text>
</a>
</g>
</g>
<!-- Node2 -->
<g id="node2" class="node"><title>Node2</title>
<g id="a_node2"><a xlink:title=" ">
<polygon fill="white" stroke="#bfbfbf" points="41,-160.5 41,-217.5 113,-217.5 113,-160.5 41,-160.5"/>
<text text-anchor="middle" x="77" y="-205.5" font-family="Helvetica,sans-Serif" font-size="10.00">WaveStream</text>
<polyline fill="none" stroke="#bfbfbf" points="41,-198.5 113,-198.5 "/>
<text text-anchor="middle" x="77" y="-186.5" font-family="Helvetica,sans-Serif" font-size="10.00"> </text>
<polyline fill="none" stroke="#bfbfbf" points="41,-179.5 113,-179.5 "/>
<text text-anchor="middle" x="77" y="-167.5" font-family="Helvetica,sans-Serif" font-size="10.00"> </text>
</a>
</g>
</g>
<!-- Node2&#45;&gt;Node1 -->
<g id="edge1" class="edge"><title>Node2&#45;&gt;Node1</title>
<path fill="none" stroke="midnightblue" d="M77,-150.099C77,-141.739 77,-132.68 77,-123.672"/>
<polygon fill="none" stroke="midnightblue" points="73.5001,-150.258 77,-160.258 80.5001,-150.258 73.5001,-150.258"/>
</g>
</g>
</svg>
