<?xml version="1.0" encoding="UTF-8" standalone="no"?>
<!DOCTYPE svg PUBLIC "-//W3C//DTD SVG 1.1//EN"
 "http://www.w3.org/Graphics/SVG/1.1/DTD/svg11.dtd">
<!-- Generated by graphviz version 2.38.0 (20140413.2041)
 -->
<!-- Title: BasicTracker.Program.Main Pages: 1 -->
<svg width="717pt" height="96pt"
 viewBox="0.00 0.00 717.00 95.83" xmlns="http://www.w3.org/2000/svg" xmlns:xlink="http://www.w3.org/1999/xlink">
<g id="graph0" class="graph" transform="scale(1 1) rotate(0) translate(4 91.8319)">
<title>BasicTracker.Program.Main</title>
<polygon fill="white" stroke="none" points="-4,4 -4,-91.8319 713,-91.8319 713,4 -4,4"/>
<!-- Node1 -->
<g id="node1" class="node"><title>Node1</title>
<g id="a_node1"><a xlink:title="The main function.">
<polygon fill="#bfbfbf" stroke="black" points="0,-44.5 0,-63.5 137,-63.5 137,-44.5 0,-44.5"/>
<text text-anchor="middle" x="68.5" y="-51.5" font-family="Helvetica,sans-Serif" font-size="10.00">BasicTracker.Program.Main</text>
</a>
</g>
</g>
<!-- Node2 -->
<g id="node2" class="node"><title>Node2</title>
<g id="a_node2"><a xlink:href="class_basic_tracker_1_1_consolex.html#a44f4ae0b9fee79d2139607c7802d316f" target="_top" xlink:title="returns the last key from the user">
<polygon fill="white" stroke="black" points="556,-66.5 556,-85.5 709,-85.5 709,-66.5 556,-66.5"/>
<text text-anchor="middle" x="632.5" y="-73.5" font-family="Helvetica,sans-Serif" font-size="10.00">BasicTracker.Consolex.GetKey</text>
</a>
</g>
</g>
<!-- Node1&#45;&gt;Node2 -->
<g id="edge1" class="edge"><title>Node1&#45;&gt;Node2</title>
<path fill="none" stroke="midnightblue" d="M102.26,-63.6134C122.454,-69.0329 148.993,-75.253 173,-78 302.206,-92.7843 453.236,-87.8838 545.61,-82.4022"/>
<polygon fill="midnightblue" stroke="midnightblue" points="545.979,-85.8863 555.748,-81.7843 545.553,-78.8993 545.979,-85.8863"/>
</g>
<!-- Node3 -->
<g id="node3" class="node"><title>Node3</title>
<g id="a_node3"><a xlink:href="class_basic_tracker_1_1_consolex.html#a2c8b2a721cb4a6f4eb7506e5a7c90b7c" target="_top" xlink:title="Handles the cursor movement.">
<polygon fill="white" stroke="black" points="186.5,-39 186.5,-69 335.5,-69 335.5,-39 186.5,-39"/>
<text text-anchor="start" x="194.5" y="-57" font-family="Helvetica,sans-Serif" font-size="10.00">BasicTracker.Consolex.handle</text>
<text text-anchor="middle" x="261" y="-46" font-family="Helvetica,sans-Serif" font-size="10.00">Movement</text>
</a>
</g>
</g>
<!-- Node1&#45;&gt;Node3 -->
<g id="edge2" class="edge"><title>Node1&#45;&gt;Node3</title>
<path fill="none" stroke="midnightblue" d="M137.2,-54C149.773,-54 163.047,-54 176.037,-54"/>
<polygon fill="midnightblue" stroke="midnightblue" points="176.375,-57.5001 186.375,-54 176.375,-50.5001 176.375,-57.5001"/>
</g>
<!-- Node5 -->
<g id="node5" class="node"><title>Node5</title>
<g id="a_node5"><a xlink:href="class_basic_tracker_1_1_consolex.html#a288ed5923467e92e55c1832d7fd09c18" target="_top" xlink:title="Gets a key from the user and set lastkey to it.">
<polygon fill="white" stroke="black" points="173,-0.5 173,-19.5 349,-19.5 349,-0.5 173,-0.5"/>
<text text-anchor="middle" x="261" y="-7.5" font-family="Helvetica,sans-Serif" font-size="10.00">BasicTracker.Consolex.RefreshKeys</text>
</a>
</g>
</g>
<!-- Node1&#45;&gt;Node5 -->
<g id="edge5" class="edge"><title>Node1&#45;&gt;Node5</title>
<path fill="none" stroke="midnightblue" d="M108.28,-44.4191C127.69,-39.6781 151.562,-33.9295 173,-29 183.39,-26.6109 194.496,-24.1301 205.177,-21.7806"/>
<polygon fill="midnightblue" stroke="midnightblue" points="206.231,-25.1329 215.251,-19.5753 204.734,-18.2948 206.231,-25.1329"/>
</g>
<!-- Node4 -->
<g id="node4" class="node"><title>Node4</title>
<g id="a_node4"><a xlink:href="class_basic_tracker_1_1_main_window.html#a7d1d257f8d33a8c221776cff36eea9a3" target="_top" xlink:title=" ">
<polygon fill="white" stroke="black" points="385,-39 385,-69 520,-69 520,-39 385,-39"/>
<text text-anchor="start" x="393" y="-57" font-family="Helvetica,sans-Serif" font-size="10.00">BasicTracker.MainWindow.</text>
<text text-anchor="middle" x="452.5" y="-46" font-family="Helvetica,sans-Serif" font-size="10.00">HandleMovement</text>
</a>
</g>
</g>
<!-- Node3&#45;&gt;Node4 -->
<g id="edge3" class="edge"><title>Node3&#45;&gt;Node4</title>
<path fill="none" stroke="midnightblue" d="M335.537,-54C348.343,-54 361.695,-54 374.589,-54"/>
<polygon fill="midnightblue" stroke="midnightblue" points="374.812,-57.5001 384.812,-54 374.812,-50.5001 374.812,-57.5001"/>
</g>
<!-- Node4&#45;&gt;Node2 -->
<g id="edge4" class="edge"><title>Node4&#45;&gt;Node2</title>
<path fill="none" stroke="midnightblue" d="M520.034,-62.2233C528.409,-63.2584 537.068,-64.3286 545.687,-65.3939"/>
<polygon fill="midnightblue" stroke="midnightblue" points="545.413,-68.8866 555.767,-66.6397 546.272,-61.9395 545.413,-68.8866"/>
</g>
</g>
</svg>
