<?xml version="1.0" encoding="UTF-8" standalone="no"?>
<!DOCTYPE svg PUBLIC "-//W3C//DTD SVG 1.1//EN"
 "http://www.w3.org/Graphics/SVG/1.1/DTD/svg11.dtd">
<!-- Generated by graphviz version 2.38.0 (20140413.2041)
 -->
<!-- Title: BasicTracker.Consolex.Consolex Pages: 1 -->
<svg width="377pt" height="127pt"
 viewBox="0.00 0.00 377.00 126.50" xmlns="http://www.w3.org/2000/svg" xmlns:xlink="http://www.w3.org/1999/xlink">
<g id="graph0" class="graph" transform="scale(1 1) rotate(0) translate(4 122.5)">
<title>BasicTracker.Consolex.Consolex</title>
<polygon fill="white" stroke="none" points="-4,4 -4,-122.5 373,-122.5 373,4 -4,4"/>
<!-- Node1 -->
<g id="node1" class="node"><title>Node1</title>
<g id="a_node1"><a xlink:title="Empty static console constructor.">
<polygon fill="#bfbfbf" stroke="black" points="0,-55 0,-74 161,-74 161,-55 0,-55"/>
<text text-anchor="middle" x="80.5" y="-62" font-family="Helvetica,sans-Serif" font-size="10.00">BasicTracker.Consolex.Consolex</text>
</a>
</g>
</g>
<!-- Node2 -->
<g id="node2" class="node"><title>Node2</title>
<g id="a_node2"><a xlink:href="class_basic_tracker_1_1_consolex.html#aa488f0e247ffed0ca3666b57b59f69d1" target="_top" xlink:title="For removing abilities.">
<polygon fill="white" stroke="black" points="197,-99 197,-118 369,-118 369,-99 197,-99"/>
<text text-anchor="middle" x="283" y="-106" font-family="Helvetica,sans-Serif" font-size="10.00">BasicTracker.Consolex.DeleteMenu</text>
</a>
</g>
</g>
<!-- Node1&#45;&gt;Node2 -->
<g id="edge1" class="edge"><title>Node1&#45;&gt;Node2</title>
<path fill="none" stroke="midnightblue" d="M125.006,-74.0473C155.352,-80.7069 196.042,-89.6363 228.393,-96.7358"/>
<polygon fill="midnightblue" stroke="midnightblue" points="228.062,-100.246 238.579,-98.9713 229.562,-93.4091 228.062,-100.246"/>
</g>
<!-- Node3 -->
<g id="node3" class="node"><title>Node3</title>
<g id="a_node3"><a xlink:href="class_basic_tracker_1_1_consolex.html#a1e1b288ed3e05c6dab1b31826dff6a6a" target="_top" xlink:title="For getting handles.">
<polygon fill="white" stroke="black" points="215,-49.5 215,-79.5 351,-79.5 351,-49.5 215,-49.5"/>
<text text-anchor="start" x="223" y="-67.5" font-family="Helvetica,sans-Serif" font-size="10.00">BasicTracker.Consolex.Get</text>
<text text-anchor="middle" x="283" y="-56.5" font-family="Helvetica,sans-Serif" font-size="10.00">ConsoleWindow</text>
</a>
</g>
</g>
<!-- Node1&#45;&gt;Node3 -->
<g id="edge2" class="edge"><title>Node1&#45;&gt;Node3</title>
<path fill="none" stroke="midnightblue" d="M161.031,-64.5C175.371,-64.5 190.303,-64.5 204.583,-64.5"/>
<polygon fill="midnightblue" stroke="midnightblue" points="204.847,-68.0001 214.847,-64.5 204.847,-61.0001 204.847,-68.0001"/>
</g>
<!-- Node4 -->
<g id="node4" class="node"><title>Node4</title>
<g id="a_node4"><a xlink:href="class_basic_tracker_1_1_consolex.html#a041d02c3fd7bb7dd2100d12ddf354c78" target="_top" xlink:title="For getting handles.">
<polygon fill="white" stroke="black" points="215,-0.5 215,-30.5 351,-30.5 351,-0.5 215,-0.5"/>
<text text-anchor="start" x="223" y="-18.5" font-family="Helvetica,sans-Serif" font-size="10.00">BasicTracker.Consolex.Get</text>
<text text-anchor="middle" x="283" y="-7.5" font-family="Helvetica,sans-Serif" font-size="10.00">SystemMenu</text>
</a>
</g>
</g>
<!-- Node1&#45;&gt;Node4 -->
<g id="edge3" class="edge"><title>Node1&#45;&gt;Node4</title>
<path fill="none" stroke="midnightblue" d="M120.634,-54.936C146.129,-48.7053 180.152,-40.3906 210.382,-33.0026"/>
<polygon fill="midnightblue" stroke="midnightblue" points="211.588,-36.311 220.471,-30.537 209.926,-29.5111 211.588,-36.311"/>
</g>
</g>
</svg>
