<?xml version="1.0" encoding="UTF-8" standalone="no"?>
<!DOCTYPE svg PUBLIC "-//W3C//DTD SVG 1.1//EN"
 "http://www.w3.org/Graphics/SVG/1.1/DTD/svg11.dtd">
<!-- Generated by graphviz version 2.38.0 (20140413.2041)
 -->
<!-- Title: BasicTracker.Note Pages: 1 -->
<svg width="324pt" height="215pt"
 viewBox="0.00 0.00 323.50 215.00" xmlns="http://www.w3.org/2000/svg" xmlns:xlink="http://www.w3.org/1999/xlink">
<g id="graph0" class="graph" transform="scale(1 1) rotate(0) translate(4 211)">
<title>BasicTracker.Note</title>
<polygon fill="white" stroke="none" points="-4,4 -4,-211 319.5,-211 319.5,4 -4,4"/>
<!-- Node1 -->
<g id="node1" class="node"><title>Node1</title>
<g id="a_node1"><a xlink:title=" ">
<polygon fill="#bfbfbf" stroke="black" points="107,-0.5 107,-90.5 204,-90.5 204,-0.5 107,-0.5"/>
<text text-anchor="middle" x="155.5" y="-78.5" font-family="Helvetica,sans-Serif" font-size="10.00">BasicTracker.Note</text>
<polyline fill="none" stroke="black" points="107,-71.5 204,-71.5 "/>
<text text-anchor="start" x="115" y="-59.5" font-family="Helvetica,sans-Serif" font-size="10.00">+ instrument</text>
<text text-anchor="start" x="115" y="-48.5" font-family="Helvetica,sans-Serif" font-size="10.00">+ note</text>
<text text-anchor="start" x="115" y="-37.5" font-family="Helvetica,sans-Serif" font-size="10.00">+ octave</text>
<text text-anchor="start" x="115" y="-26.5" font-family="Helvetica,sans-Serif" font-size="10.00">+ internal_note</text>
<polyline fill="none" stroke="black" points="107,-19.5 204,-19.5 "/>
<text text-anchor="start" x="115" y="-7.5" font-family="Helvetica,sans-Serif" font-size="10.00">+ decodeVolume()</text>
</a>
</g>
</g>
<!-- Node2 -->
<g id="node2" class="node"><title>Node2</title>
<g id="a_node2"><a xlink:href="struct_basic_tracker_1_1effect_parameter.html" target="_top" xlink:title=" ">
<polygon fill="white" stroke="black" points="0,-138.5 0,-206.5 145,-206.5 145,-138.5 0,-138.5"/>
<text text-anchor="middle" x="72.5" y="-194.5" font-family="Helvetica,sans-Serif" font-size="10.00">BasicTracker.effectParameter</text>
<polyline fill="none" stroke="black" points="0,-187.5 145,-187.5 "/>
<text text-anchor="start" x="8" y="-175.5" font-family="Helvetica,sans-Serif" font-size="10.00">+ type</text>
<text text-anchor="start" x="8" y="-164.5" font-family="Helvetica,sans-Serif" font-size="10.00">+ value</text>
<polyline fill="none" stroke="black" points="0,-157.5 145,-157.5 "/>
<text text-anchor="middle" x="72.5" y="-145.5" font-family="Helvetica,sans-Serif" font-size="10.00"> </text>
</a>
</g>
</g>
<!-- Node2&#45;&gt;Node1 -->
<g id="edge1" class="edge"><title>Node2&#45;&gt;Node1</title>
<path fill="none" stroke="#404040" d="M94.5246,-138.33C102.179,-126.802 110.978,-113.552 119.465,-100.769"/>
<polygon fill="none" stroke="#404040" points="119.54,-100.657 119.527,-93.4454 126.178,-90.6596 126.191,-97.8707 119.54,-100.657"/>
<text text-anchor="middle" x="131" y="-112" font-family="Helvetica,sans-Serif" font-size="10.00"> +effect</text>
</g>
<!-- Node3 -->
<g id="node3" class="node"><title>Node3</title>
<g id="a_node3"><a xlink:href="struct_basic_tracker_1_1volume_parameter.html" target="_top" xlink:title=" ">
<polygon fill="white" stroke="black" points="163.5,-138.5 163.5,-206.5 315.5,-206.5 315.5,-138.5 163.5,-138.5"/>
<text text-anchor="middle" x="239.5" y="-194.5" font-family="Helvetica,sans-Serif" font-size="10.00">BasicTracker.volumeParameter</text>
<polyline fill="none" stroke="black" points="163.5,-187.5 315.5,-187.5 "/>
<text text-anchor="start" x="171.5" y="-175.5" font-family="Helvetica,sans-Serif" font-size="10.00">+ type</text>
<text text-anchor="start" x="171.5" y="-164.5" font-family="Helvetica,sans-Serif" font-size="10.00">+ value</text>
<polyline fill="none" stroke="black" points="163.5,-157.5 315.5,-157.5 "/>
<text text-anchor="middle" x="239.5" y="-145.5" font-family="Helvetica,sans-Serif" font-size="10.00"> </text>
</a>
</g>
</g>
<!-- Node3&#45;&gt;Node1 -->
<g id="edge2" class="edge"><title>Node3&#45;&gt;Node1</title>
<path fill="none" stroke="#404040" d="M217.21,-138.33C209.463,-126.802 200.559,-113.552 191.969,-100.769"/>
<polygon fill="none" stroke="#404040" points="191.868,-100.62 185.202,-97.8707 185.175,-90.6596 191.842,-93.4086 191.868,-100.62"/>
<text text-anchor="middle" x="223.5" y="-112" font-family="Helvetica,sans-Serif" font-size="10.00"> +volume</text>
</g>
</g>
</svg>
