<?xml version="1.0" encoding="UTF-8" standalone="no"?>
<!DOCTYPE svg PUBLIC "-//W3C//DTD SVG 1.1//EN"
 "http://www.w3.org/Graphics/SVG/1.1/DTD/svg11.dtd">
<!-- Generated by graphviz version 2.38.0 (20140413.2041)
 -->
<!-- Title: BasicTracker.Song.loadfromfile Pages: 1 -->
<svg width="496pt" height="39pt"
 viewBox="0.00 0.00 496.00 39.00" xmlns="http://www.w3.org/2000/svg" xmlns:xlink="http://www.w3.org/1999/xlink">
<g id="graph0" class="graph" transform="scale(1 1) rotate(0) translate(4 35)">
<title>BasicTracker.Song.loadfromfile</title>
<polygon fill="white" stroke="none" points="-4,4 -4,-35 492,-35 492,4 -4,4"/>
<!-- Node1 -->
<g id="node1" class="node"><title>Node1</title>
<g id="a_node1"><a xlink:title="Loads a song from a BSCM file.">
<polygon fill="#bfbfbf" stroke="black" points="0,-6 0,-25 151,-25 151,-6 0,-6"/>
<text text-anchor="middle" x="75.5" y="-13" font-family="Helvetica,sans-Serif" font-size="10.00">BasicTracker.Song.loadfromfile</text>
</a>
</g>
</g>
<!-- Node2 -->
<g id="node2" class="node"><title>Node2</title>
<g id="a_node2"><a xlink:href="class_basic_tracker_1_1_song.html#aff0c24ff12def6b44051c106cf7dbe83" target="_top" xlink:title="Loads a pattern.">
<polygon fill="white" stroke="black" points="187,-0.5 187,-30.5 321,-30.5 321,-0.5 187,-0.5"/>
<text text-anchor="start" x="195" y="-18.5" font-family="Helvetica,sans-Serif" font-size="10.00">BasicTracker.Song.decode</text>
<text text-anchor="middle" x="254" y="-7.5" font-family="Helvetica,sans-Serif" font-size="10.00">Pattern</text>
</a>
</g>
</g>
<!-- Node1&#45;&gt;Node2 -->
<g id="edge1" class="edge"><title>Node1&#45;&gt;Node2</title>
<path fill="none" stroke="midnightblue" d="M151.096,-15.5C159.524,-15.5 168.122,-15.5 176.573,-15.5"/>
<polygon fill="midnightblue" stroke="midnightblue" points="176.787,-19.0001 186.787,-15.5 176.787,-12.0001 176.787,-19.0001"/>
</g>
<!-- Node3 -->
<g id="node3" class="node"><title>Node3</title>
<g id="a_node3"><a xlink:href="class_basic_tracker_1_1_note.html#a2614596470ab7dcc0b88030eb3758561" target="_top" xlink:title="part of the file loading. Decodes what effect is in the volume column because of course.">
<polygon fill="white" stroke="black" points="357,-0.5 357,-30.5 488,-30.5 488,-0.5 357,-0.5"/>
<text text-anchor="start" x="365" y="-18.5" font-family="Helvetica,sans-Serif" font-size="10.00">BasicTracker.Note.decode</text>
<text text-anchor="middle" x="422.5" y="-7.5" font-family="Helvetica,sans-Serif" font-size="10.00">Volume</text>
</a>
</g>
</g>
<!-- Node2&#45;&gt;Node3 -->
<g id="edge2" class="edge"><title>Node2&#45;&gt;Node3</title>
<path fill="none" stroke="midnightblue" d="M321.284,-15.5C329.601,-15.5 338.153,-15.5 346.591,-15.5"/>
<polygon fill="midnightblue" stroke="midnightblue" points="346.802,-19.0001 356.802,-15.5 346.802,-12.0001 346.802,-19.0001"/>
</g>
</g>
</svg>
