<?xml version="1.0" encoding="UTF-8" standalone="no"?>
<!DOCTYPE svg PUBLIC "-//W3C//DTD SVG 1.1//EN"
 "http://www.w3.org/Graphics/SVG/1.1/DTD/svg11.dtd">
<!-- Generated by graphviz version 2.38.0 (20140413.2041)
 -->
<!-- Title: BasicTracker.Consolex.GetKey Pages: 1 -->
<svg width="690pt" height="56pt"
 viewBox="0.00 0.00 690.00 55.50" xmlns="http://www.w3.org/2000/svg" xmlns:xlink="http://www.w3.org/1999/xlink">
<g id="graph0" class="graph" transform="scale(1 1) rotate(0) translate(4 51.5)">
<title>BasicTracker.Consolex.GetKey</title>
<polygon fill="white" stroke="none" points="-4,4 -4,-51.5 686,-51.5 686,4 -4,4"/>
<!-- Node1 -->
<g id="node1" class="node"><title>Node1</title>
<g id="a_node1"><a xlink:title=" ">
<polygon fill="#bfbfbf" stroke="black" points="529,-0.5 529,-19.5 682,-19.5 682,-0.5 529,-0.5"/>
<text text-anchor="middle" x="605.5" y="-7.5" font-family="Helvetica,sans-Serif" font-size="10.00">BasicTracker.Consolex.GetKey</text>
</a>
</g>
</g>
<!-- Node2 -->
<g id="node2" class="node"><title>Node2</title>
<g id="a_node2"><a xlink:href="class_basic_tracker_1_1_main_window.html#a7d1d257f8d33a8c221776cff36eea9a3" target="_top" xlink:title=" ">
<polygon fill="white" stroke="black" points="358,-17 358,-47 493,-47 493,-17 358,-17"/>
<text text-anchor="start" x="366" y="-35" font-family="Helvetica,sans-Serif" font-size="10.00">BasicTracker.MainWindow.</text>
<text text-anchor="middle" x="425.5" y="-24" font-family="Helvetica,sans-Serif" font-size="10.00">HandleMovement</text>
</a>
</g>
</g>
<!-- Node1&#45;&gt;Node2 -->
<g id="edge1" class="edge"><title>Node1&#45;&gt;Node2</title>
<path fill="none" stroke="midnightblue" d="M518.717,-20.6023C510.136,-21.663 501.514,-22.7286 493.173,-23.7595"/>
<polygon fill="midnightblue" stroke="midnightblue" points="519.259,-24.0622 528.754,-19.3619 518.4,-17.115 519.259,-24.0622"/>
</g>
<!-- Node4 -->
<g id="node4" class="node"><title>Node4</title>
<g id="a_node4"><a xlink:href="class_basic_tracker_1_1_program.html#acc460dc1fab2ff8c86a3ad6a23b888c9" target="_top" xlink:title="The main function.">
<polygon fill="white" stroke="black" points="0,-0.5 0,-19.5 137,-19.5 137,-0.5 0,-0.5"/>
<text text-anchor="middle" x="68.5" y="-7.5" font-family="Helvetica,sans-Serif" font-size="10.00">BasicTracker.Program.Main</text>
</a>
</g>
</g>
<!-- Node1&#45;&gt;Node4 -->
<g id="edge4" class="edge"><title>Node1&#45;&gt;Node4</title>
<path fill="none" stroke="midnightblue" d="M518.748,-7.4597C510.051,-7.27192 501.35,-7.11231 493,-7 350.791,-5.08722 315.207,-4.93946 173,-7 161.407,-7.16799 149.085,-7.44176 137.138,-7.75736"/>
<polygon fill="midnightblue" stroke="midnightblue" points="518.857,-10.963 528.934,-7.69193 519.016,-3.96481 518.857,-10.963"/>
</g>
<!-- Node3 -->
<g id="node3" class="node"><title>Node3</title>
<g id="a_node3"><a xlink:href="class_basic_tracker_1_1_consolex.html#a2c8b2a721cb4a6f4eb7506e5a7c90b7c" target="_top" xlink:title="Handles the cursor movement.">
<polygon fill="white" stroke="black" points="173,-17 173,-47 322,-47 322,-17 173,-17"/>
<text text-anchor="start" x="181" y="-35" font-family="Helvetica,sans-Serif" font-size="10.00">BasicTracker.Consolex.handle</text>
<text text-anchor="middle" x="247.5" y="-24" font-family="Helvetica,sans-Serif" font-size="10.00">Movement</text>
</a>
</g>
</g>
<!-- Node2&#45;&gt;Node3 -->
<g id="edge2" class="edge"><title>Node2&#45;&gt;Node3</title>
<path fill="none" stroke="midnightblue" d="M347.719,-32C339.247,-32 330.633,-32 322.2,-32"/>
<polygon fill="midnightblue" stroke="midnightblue" points="347.962,-35.5001 357.962,-32 347.962,-28.5001 347.962,-35.5001"/>
</g>
<!-- Node3&#45;&gt;Node4 -->
<g id="edge3" class="edge"><title>Node3&#45;&gt;Node4</title>
<path fill="none" stroke="midnightblue" d="M162.888,-21.6076C154.255,-20.5346 145.56,-19.4538 137.133,-18.4064"/>
<polygon fill="midnightblue" stroke="midnightblue" points="162.618,-25.1009 172.974,-22.8611 163.482,-18.1543 162.618,-25.1009"/>
</g>
</g>
</svg>
